<!--?xml version="1.0" encoding="utf-8"?-->
<!-- Generator: Adobe Illustrator 18.0.0, SVG Export Plug-In . SVG Version: 6.00 Build 0)  -->

<svg version="1.1" id="_x31_0" xmlns="http://www.w3.org/2000/svg" xmlns:xlink="http://www.w3.org/1999/xlink" x="0px" y="0px" viewBox="0 0 512 512" style="width: 16px; height: 16px; opacity: 1;" xml:space="preserve">
<style type="text/css">
	.st0{fill:#374149;}
</style>
<g>
	<path class="st0" d="M143.99,302.11c-0.09,61.87,49.997,112.105,111.871,112.194c61.87,0.09,112.101-49.996,112.19-111.867
		c0.09-61.87-49.992-112.105-111.866-112.194S144.08,240.24,143.99,302.11z M237.28,350.483l0.039-26.135
		c0.004-1.893-1.53-3.43-3.426-3.434l-30.486-0.043c-1.892-0.004-3.426-1.538-3.422-3.434l0.042-30.486
		c0.004-1.897,1.542-3.43,3.434-3.426l30.487,0.043c1.896,0.004,3.434-1.526,3.434-3.418l0.039-26.14
		c0.007-4.292,3.496-7.773,7.792-7.769l21.781,0.035c4.297,0.004,7.777,3.493,7.77,7.789l-0.039,26.135
		c0,1.893,1.534,3.43,3.426,3.434l26.136,0.038c4.296,0.004,7.773,3.493,7.769,7.789l-0.031,21.785
		c-0.008,4.296-3.496,7.777-7.792,7.769l-26.136-0.035c-1.893-0.003-3.43,1.53-3.434,3.422l-0.039,26.136
		c-0.004,4.296-3.492,7.773-7.789,7.769l-21.785-0.031C240.753,358.268,237.272,354.78,237.28,350.483z" style="fill: rgb(75, 75, 75);"></path>
	<path class="st0" d="M466.067,141.441c-0.019-1.167-0.113-2.33-0.343-3.473c-0.027-0.125-0.074-0.242-0.102-0.367
		c-0.222-0.991-0.526-1.958-0.902-2.907c-0.136-0.351-0.296-0.69-0.452-1.03c-0.336-0.73-0.718-1.428-1.147-2.115
		c-0.188-0.304-0.359-0.605-0.562-0.894c-0.601-0.858-1.264-1.682-2.014-2.446c-0.05-0.054-0.094-0.121-0.148-0.172
		c-0.008-0.011-0.015-0.019-0.023-0.027L337.972,6.056c-0.804-0.8-1.678-1.494-2.583-2.13c-0.278-0.195-0.57-0.355-0.854-0.534
		c-0.695-0.434-1.405-0.824-2.142-1.167c-0.34-0.156-0.679-0.316-1.03-0.453c-0.902-0.354-1.822-0.643-2.762-0.858
		c-0.176-0.042-0.34-0.109-0.515-0.144c-1.143-0.23-2.306-0.332-3.477-0.355c-0.125-0.004-0.234-0.039-0.359-0.039L66.09,0
		C55.329-0.015,46.596,8.698,46.58,19.455l-0.686,472.481c-0.015,10.758,8.694,19.494,19.455,19.51L446.085,512
		c10.762,0.015,19.498-8.694,19.514-19.455l0.507-350.706C466.106,141.702,466.071,141.577,466.067,141.441z M399.315,122.258
		l-55.576-0.078l-0.184-0.004l0.082-55.471L376.13,99.08L399.315,122.258z M427.114,161.266l-0.453,310.367v1.37l-341.77-0.495
		l0.628-433.511l218.244,0.316l0.949,0.004l-0.149,102.288c-0.015,10.762,8.69,19.494,19.456,19.51l102.697,0.152H427.114z" style="fill: rgb(75, 75, 75);"></path>
</g>
</svg>
